first trial
nRows=39
nColumns=38

# SIMM Motion File Header:
name Sujet_04_velo_100.mvnx
datacolumns 38
datarows 39
otherdata 1
range 8.1160 8.7500
endheader
time pelvis_tilt  pelvis_list  pelvis_rotation  pelvis_tx  pelvis_ty  pelvis_tz  hip_flexion_r  hip_adduction_r  hip_rotation_r  knee_angle_r  ankle_angle_r  subtalar_angle_r  mtp_angle_r  hip_flexion_l  hip_adduction_l  hip_rotation_l  knee_angle_l  ankle_angle_l  subtalar_angle_l  mtp_angle_l  lumbar_extension  lumbar_bending  lumbar_rotation  arm_flex_r  arm_add_r  arm_rot_r  elbow_flex_r  pro_sup_r  wrist_flex_r  wrist_dev_r  arm_flex_l  arm_add_l  arm_rot_l  elbow_flex_l  pro_sup_l  wrist_flex_l  wrist_dev_l
8.1160	-18.5241	8.8676	-36.0443	0.0000	1.2500	-0.0000	61.1135	-15.0081	0.6296	51.6249	3.9198	0.4986	-0.0000	70.2495	-3.4094	-12.8879	98.5942	0.1056	11.9890	-0.0000	-15.5519	1.0487	-2.7335	67.3339	-6.5892	18.6688	25.5074	68.0448	-25.7154	-10.2887	70.1640	11.6332	19.8117	14.4376	70.0223	-28.7003	-18.4690	
8.1330	-18.6138	9.3317	-35.1516	0.0000	1.2500	-0.0000	57.4272	-15.0947	-0.3322	47.2640	1.0344	1.0352	0.0000	73.6996	-3.1024	-12.5782	101.9114	1.9226	11.8272	0.0000	-15.4781	0.9754	-2.9831	67.1620	-6.6723	18.4987	25.5884	67.9208	-25.6887	-10.2669	70.6950	12.0173	19.5833	14.1648	70.5881	-28.7683	-18.4012	
8.1500	-18.6660	9.7637	-34.4620	0.0000	1.2500	-0.0000	54.1856	-15.1345	-1.0296	43.9270	-1.3219	1.4650	0.0000	76.8404	-2.8709	-12.2397	104.3252	3.7208	11.5771	-0.0000	-15.4537	0.8736	-3.2033	67.1760	-6.7219	18.2991	25.6367	67.7956	-25.6778	-10.2701	71.2327	12.3144	19.3885	13.9063	71.0821	-28.7853	-18.3350	
8.1660	-18.6470	10.2040	-33.9645	0.0000	1.2500	-0.0000	51.4350	-15.2155	-1.3461	41.7414	-2.9102	1.6989	-0.0000	79.6981	-2.7351	-11.6671	105.8009	5.3573	11.1725	0.0000	-15.4879	0.7344	-3.4170	67.4717	-6.7387	18.0594	25.6560	67.6233	-25.6988	-10.3162	71.6833	12.4766	19.3019	13.6767	71.4413	-28.6902	-18.2769	
8.1830	-18.5953	10.6103	-33.6717	0.0000	1.2500	-0.0000	49.1250	-15.3346	-1.3680	40.5651	-3.9583	1.8214	-0.0000	82.2506	-2.6757	-11.0143	106.3776	6.9800	10.6784	-0.0000	-15.5707	0.5678	-3.6016	67.9545	-6.7262	17.7903	25.6408	67.4480	-25.7357	-10.3875	72.1412	12.5500	19.2506	13.4605	71.7292	-28.5443	-18.2206	
8.2000	-18.5082	10.8571	-33.7628	0.0000	1.2500	-0.0000	47.4580	-15.3619	-1.1982	40.6323	-4.3432	1.8646	-0.0000	84.1191	-2.6920	-10.6196	106.0303	8.5920	10.1369	-0.0000	-15.7032	0.3671	-3.6577	68.3678	-6.7130	17.4738	25.5958	67.3794	-25.7486	-10.4373	72.5766	12.5873	19.1996	13.2571	71.9821	-28.4348	-18.1352	
8.2160	-18.3770	10.8771	-34.4692	0.0000	1.2500	-0.0000	46.4766	-15.2050	-0.7798	42.1048	-3.7449	1.7350	0.0000	85.2063	-2.8734	-10.6610	104.7195	10.3410	9.4392	-0.0000	-15.9048	0.0871	-3.5087	68.5706	-6.7215	17.0585	25.5286	67.4846	-25.7150	-10.4434	73.0069	12.5790	19.1654	13.0561	72.2160	-28.3810	-17.9866	
8.2330	-18.2099	10.7415	-35.5576	0.0000	1.2500	-0.0000	46.1450	-14.9624	-0.1430	44.8607	-2.4670	1.5049	0.0000	85.6096	-3.1529	-10.9326	102.4796	12.0806	8.6781	-0.0000	-16.1511	-0.2311	-3.2320	68.7036	-6.7268	16.5956	25.4350	67.6987	-25.6569	-10.4276	73.4148	12.5355	19.1328	12.8696	72.4151	-28.3636	-17.8085	
8.2500	-18.0304	10.5313	-36.5104	0.0000	1.2500	-0.0000	46.5509	-14.7599	0.4762	48.7061	-1.3294	1.4275	0.0000	85.2386	-3.2984	-11.2190	99.3904	13.3765	8.1770	0.0000	-16.3810	-0.4630	-2.9570	68.9330	-6.6835	16.2196	25.3047	67.9351	-25.6013	-10.4084	73.7197	12.5367	19.0150	12.7316	72.5680	-28.4110	-17.6712	
8.2660	-17.8366	10.2774	-37.0907	0.0000	1.2500	-0.0000	47.8505	-14.6345	0.9937	53.9057	-0.6127	1.6083	0.0000	83.9828	-3.1448	-11.4570	95.3302	14.1582	8.0819	0.0000	-16.5901	-0.5525	-2.7270	69.4129	-6.5722	15.9676	25.1068	68.1584	-25.5635	-10.3982	73.9124	12.6639	18.7155	12.6340	72.7063	-28.5803	-17.6098	
8.2830	-17.6303	9.9476	-37.5351	0.0000	1.2500	-0.0000	49.8841	-14.5196	1.4705	60.2067	-0.0445	1.9278	0.0000	81.9525	-2.8489	-11.7254	90.4239	14.5074	8.1973	0.0000	-16.7867	-0.5536	-2.4971	69.9898	-6.4128	15.8019	24.8716	68.4039	-25.5282	-10.3848	74.0033	12.8329	18.3277	12.5847	72.7987	-28.8142	-17.5892	
8.3000	-17.4421	9.5254	-38.0400	0.0000	1.2500	-0.0000	52.2653	-14.3893	1.8844	66.6074	0.3746	2.2947	0.0000	79.3841	-2.6570	-12.0393	85.1147	14.2177	8.3486	0.0000	-16.9338	-0.5032	-2.2640	70.3679	-6.2166	15.7442	24.6792	68.6904	-25.4755	-10.3505	73.9399	12.8761	18.0492	12.6393	72.7399	-28.9704	-17.5735	
8.3160	-17.2587	8.9690	-38.7302	0.0000	1.2500	-0.0000	54.9526	-14.1843	2.1644	72.9752	0.4170	2.7898	0.0000	76.2126	-2.6757	-12.4220	79.3534	13.1004	8.5035	0.0000	-17.0082	-0.4059	-2.0186	70.3115	-5.9741	15.8660	24.5732	69.0223	-25.3821	-10.2734	73.6230	12.6812	17.9877	12.8462	72.4465	-28.9933	-17.5618	
8.3330	-17.0879	8.3210	-39.4800	0.0000	1.2500	-0.0000	57.9786	-13.9714	2.3458	79.4073	0.3073	3.3446	-0.0000	72.5037	-2.7911	-12.9019	73.1790	11.3330	8.7260	-0.0000	-17.0352	-0.2554	-1.7709	70.0530	-5.6949	16.0954	24.5077	69.3936	-25.2724	-10.1769	73.1491	12.3641	18.0364	13.1574	72.0002	-28.9389	-17.5553	
8.3500	-16.9948	7.6904	-40.1114	0.0000	1.2500	-0.0000	61.0782	-13.9091	2.5959	85.2719	0.7233	3.6347	0.0000	68.6908	-2.9108	-13.4954	67.1676	9.2570	9.0105	0.0000	-17.0498	-0.0732	-1.5470	69.9998	-5.4162	16.2379	24.4296	69.8086	-25.1981	-10.1105	72.7582	12.0973	18.0730	13.4824	71.5438	-28.8315	-17.5203	
8.3660	-17.0175	7.0988	-40.4971	0.0000	1.2500	-0.0000	64.2171	-14.1131	2.9937	90.5033	2.0166	3.5314	-0.0000	64.7772	-2.9821	-14.2581	61.2810	6.8322	9.4280	-0.0000	-17.0570	0.1626	-1.3714	70.3486	-5.1333	16.1664	24.3405	70.3342	-25.1748	-10.0851	72.5221	11.9309	17.9939	13.8150	71.1633	-28.6187	-17.4113	
8.3830	-17.1236	6.5208	-40.7683	0.0000	1.2500	-0.0000	67.4456	-14.4664	3.5118	95.2091	3.8336	3.2015	0.0000	60.7601	-3.0387	-15.1151	55.5660	4.1037	9.8953	-0.0000	-17.0514	0.4293	-1.2186	70.9041	-4.8467	16.0069	24.2391	70.9048	-25.1859	-10.0883	72.3694	11.8130	17.9029	14.1617	70.7725	-28.3523	-17.2731	
8.4000	-17.2747	5.9928	-41.1385	0.0000	1.2500	-0.0000	70.6315	-14.7531	4.1645	99.0284	5.7913	2.7504	0.0000	57.0630	-3.1277	-15.8662	50.7287	1.5437	10.1844	-0.0000	-17.0508	0.6369	-1.0391	71.4871	-4.5993	15.9442	24.0697	71.3277	-25.2343	-10.1332	72.3280	11.7610	17.9879	14.4494	70.2609	-28.2124	-17.2067	
8.4160	-17.4849	5.5097	-41.7662	0.0000	1.2500	-0.0000	73.8379	-14.8805	4.9953	101.8550	7.9490	2.1970	0.0000	53.7256	-3.3113	-16.4557	46.8492	-0.8809	10.1823	0.0000	-17.0683	0.7386	-0.7894	72.1061	-4.4036	16.0526	23.7692	71.5156	-25.3406	-10.2455	72.4528	11.8251	18.4715	14.6429	69.4434	-28.3302	-17.2761	
8.4330	-17.7377	5.0735	-42.4945	0.0000	1.2500	-0.0000	77.0013	-14.9022	5.9280	103.7787	10.2384	1.5677	0.0000	50.7031	-3.5292	-16.9537	43.8473	-3.1395	10.0216	-0.0000	-17.0900	0.7802	-0.5131	72.7539	-4.2492	16.2591	23.4025	71.5557	-25.4839	-10.3996	72.6902	11.9493	19.1311	14.7654	68.5069	-28.5767	-17.4200	
8.4500	-17.9500	4.7353	-43.0590	0.0000	1.2500	-0.0000	79.7917	-14.8356	6.7921	104.6934	12.0807	0.8959	-0.0000	48.2921	-3.6782	-17.3275	42.1820	-4.6690	9.8540	-0.0000	-17.0932	0.8120	-0.2904	73.2287	-4.1461	16.5297	23.1058	71.5171	-25.6048	-10.5310	72.9061	11.9958	19.4855	14.8446	67.8998	-28.7393	-17.5492	
8.4660	-18.0912	4.5228	-43.3423	0.0000	1.2500	-0.0000	82.2429	-14.7101	7.6528	104.5644	13.2479	-0.0091	-0.0000	46.5664	-3.7417	-17.4653	42.0609	-5.2082	9.6876	0.0000	-17.0610	0.8516	-0.1516	73.3905	-4.1158	16.9123	22.9402	71.3701	-25.6740	-10.6142	73.0476	11.8901	19.2220	14.8829	67.9218	-28.7095	-17.6311	
8.4830	-18.1972	4.4121	-43.4593	0.0000	1.2500	-0.0000	84.3162	-14.5138	8.4728	103.4064	13.9530	-1.0257	0.0000	45.4515	-3.7803	-17.4352	43.2737	-5.0136	9.4927	0.0000	-17.0096	0.8829	-0.0665	73.3795	-4.1377	17.3604	22.8458	71.1443	-25.7207	-10.6745	73.1641	11.7117	18.6535	14.8875	68.2739	-28.5940	-17.6958	
8.5000	-18.2864	4.3794	-43.4931	0.0000	1.2500	-0.0000	85.5733	-14.2467	8.9502	101.1933	14.3004	-1.7119	-0.0000	45.0246	-3.8119	-17.4561	45.6547	-4.2973	9.3643	-0.0000	-16.9664	0.9063	-0.0247	73.4145	-4.1572	17.6983	22.7754	70.9986	-25.7733	-10.7230	73.2792	11.5591	18.2365	14.9093	68.5069	-28.5021	-17.7452	
8.5160	-18.3711	4.4024	-43.5101	0.0000	1.2500	-0.0000	85.8464	-13.8463	8.9053	97.7607	14.3479	-1.8792	0.0000	45.3525	-3.8545	-17.7453	49.3491	-2.8380	9.3420	0.0000	-16.9508	0.9209	-0.0220	73.6264	-4.1563	17.8144	22.7172	71.0465	-25.8463	-10.7611	73.4214	11.4509	18.1665	15.0015	68.4144	-28.4819	-17.7715	
8.5330	-18.4391	4.5038	-43.4434	0.0000	1.2500	-0.0000	85.3110	-13.3969	8.5354	93.3464	14.0641	-1.7594	-0.0000	46.3680	-3.8958	-18.0832	54.2216	-0.8600	9.4029	0.0000	-16.9432	0.9278	-0.0624	73.8846	-4.1530	17.8206	22.6817	71.1748	-25.9251	-10.7872	73.5652	11.3679	18.2477	15.1115	68.2025	-28.4853	-17.7825	
8.5500	-18.4728	4.7274	-43.1753	0.0000	1.2500	-0.0000	84.0432	-13.1272	8.0956	88.5040	13.4342	-1.5239	-0.0000	47.9488	-3.8887	-18.0432	59.6896	0.7530	9.5565	0.0000	-16.9119	0.9295	-0.1478	74.0145	-4.1469	17.8766	22.6546	71.2026	-25.9938	-10.8080	73.6576	11.3525	18.3482	15.1368	68.0399	-28.4769	-17.8038	
8.5660	-18.4485	5.1402	-42.5927	0.0000	1.2500	-0.0000	81.9498	-13.1443	7.6871	83.2578	12.4246	-1.1352	0.0000	50.1570	-3.7447	-17.3467	65.8433	1.5500	9.9116	0.0000	-16.8456	0.9225	-0.2978	73.9186	-4.1028	18.0704	22.6148	71.0419	-26.0621	-10.8412	73.6784	11.4272	18.4833	15.0214	67.9241	-28.4245	-17.8505	
8.5830	-18.3829	5.6739	-41.8096	0.0000	1.2500	-0.0000	79.1149	-13.3283	7.1555	77.5852	11.0653	-0.6024	0.0000	52.9370	-3.4833	-16.3184	72.5935	1.9783	10.3819	-0.0000	-16.7557	0.9090	-0.4927	73.6943	-4.0561	18.3138	22.5821	70.7808	-26.1203	-10.8691	73.6479	11.5706	18.6374	14.8222	67.8576	-28.3602	-17.9074	
8.6000	-18.3213	6.1697	-41.0480	0.0000	1.2500	-0.0000	75.8776	-13.5584	6.3767	71.8869	9.4350	-0.1463	0.0000	55.9881	-3.2349	-15.4202	79.0740	2.5134	10.6416	-0.0000	-16.6448	0.9010	-0.6749	73.4597	-4.1135	18.5025	22.6055	70.5022	-26.1228	-10.8459	73.5732	11.7594	18.6319	14.6078	68.0164	-28.3452	-17.9550	
8.6160	-18.2606	6.5642	-40.3877	0.0000	1.2500	-0.0000	72.1958	-13.7696	5.2736	66.0843	7.4262	0.1509	0.0000	59.3174	-3.0508	-14.7990	85.1947	3.2580	10.4490	0.0000	-16.5052	0.9091	-0.8073	73.2199	-4.3662	18.6105	22.7318	70.1894	-26.0188	-10.7245	73.3800	12.0124	18.3328	14.3774	68.5593	-28.4061	-17.9802	
8.6330	-18.2069	6.9212	-39.7483	0.0000	1.2500	-0.0000	68.1108	-13.9519	3.9100	60.2065	5.1409	0.3893	0.0000	62.9151	-2.8953	-14.3032	91.0379	4.1055	10.0083	0.0000	-16.3444	0.9222	-0.9273	72.9708	-4.7237	18.6635	22.9149	69.8582	-25.8584	-10.5516	73.1420	12.3069	17.8741	14.1241	69.3281	-28.5164	-17.9961	
8.6500	-18.2238	7.2760	-39.1089	0.0000	1.2500	-0.0000	64.0952	-14.0784	2.4180	54.7923	2.9749	0.6088	-0.0000	66.4531	-2.8225	-13.9015	95.9955	5.2331	9.6559	0.0000	-16.1880	0.9211	-1.0888	72.8166	-5.0208	18.6349	23.0664	69.6424	-25.7474	-10.4225	73.0886	12.5602	17.4799	13.9129	70.0228	-28.6569	-18.0219	
8.6660	-18.3764	7.6399	-38.4002	0.0000	1.2500	-0.0000	60.1687	-14.1450	0.7155	49.7693	0.9224	0.8231	-0.0000	69.8891	-2.8839	-13.6066	99.8565	6.8389	9.6654	-0.0000	-16.0344	0.9168	-1.3403	72.8286	-5.1720	18.4503	23.1370	69.6769	-25.7437	-10.3805	73.3967	12.7593	17.2502	13.7911	70.5173	-28.8631	-18.0790	
8.6830	-18.5990	8.0059	-37.6884	0.0000	1.2500	-0.0000	56.3201	-14.1193	-1.1046	45.1872	-1.0164	1.0163	-0.0000	73.2670	-3.0482	-13.3852	102.8370	8.7318	9.8077	0.0000	-15.8857	0.8995	-1.6334	72.9341	-5.2615	18.1838	23.1771	69.8275	-25.7905	-10.3834	73.8903	12.9216	17.0865	13.7181	70.9367	-29.0998	-18.1463	
8.7000	-18.7602	8.3791	-37.1576	0.0000	1.2500	-0.0000	52.9699	-14.0434	-2.6256	41.7715	-2.4278	1.1746	0.0000	76.3897	-3.2509	-13.1202	104.9696	10.5160	9.6741	-0.0000	-15.7742	0.8197	-1.8768	73.0201	-5.3800	18.0309	23.2482	69.8250	-25.8221	-10.3973	74.2714	13.0144	16.9134	13.6335	71.3577	-29.2417	-18.1796	
8.7160	-18.8049	8.7893	-36.9108	0.0000	1.2500	-0.0000	50.1580	-14.0229	-3.6830	39.7073	-3.1022	1.2849	-0.0000	79.3225	-3.5426	-12.6991	106.3236	12.1289	9.0134	-0.0000	-15.7066	0.6325	-2.0367	73.0300	-5.5593	18.1280	23.3877	69.5007	-25.8119	-10.4165	74.3824	12.9930	16.6812	13.5016	71.8326	-29.1948	-18.1548	
8.7330	-18.7920	9.2033	-36.8473	0.0000	1.2500	-0.0000	47.8289	-14.0763	-4.4266	38.8065	-3.2344	1.3482	-0.0000	82.0012	-3.8806	-12.1944	106.8398	13.6273	8.1046	0.0000	-15.6761	0.3834	-2.1465	73.0199	-5.7694	18.3379	23.5552	69.0232	-25.7860	-10.4459	74.3811	12.9005	16.4386	13.3557	72.3100	-29.0533	-18.0964	
8.7500	-18.7626	9.5289	-36.8481	0.0000	1.2500	-0.0000	46.2530	-14.1687	-4.9006	39.2371	-3.0083	1.3589	0.0000	84.0326	-4.0616	-11.7821	106.3463	14.7977	7.2951	-0.0000	-15.6944	0.1584	-2.2154	73.0463	-6.0076	18.4461	23.6973	68.6292	-25.7573	-10.4672	74.4419	12.8360	16.2566	13.2402	72.7101	-28.9738	-18.0311	
